<?xml version="1.0" encoding="UTF-8"?>
<svg version="1.1" xmlns="http://www.w3.org/2000/svg" width="1666" height="2630">
<path d="M0 0 C0.721875 0.268125 1.44375 0.53625 2.1875 0.8125 C3.38987415 4.57270248 3.30052827 8.14912497 3.27734375 12.07495117 C3.27355209 12.78183925 3.26976044 13.48872732 3.26585388 14.21703625 C3.21564398 20.97799495 3.03346763 27.73465637 2.81717682 34.4921875 C2.69578673 38.32505377 2.58615694 42.15826389 2.47558594 45.99145508 C2.45198376 46.80751032 2.42838158 47.62356556 2.40406418 48.46434975 C0.45348894 116.43424005 -0.9989174 184.90430041 3.1875 252.8125 C3.25066406 253.86874573 3.31382812 254.92499146 3.37890625 256.01324463 C8.84307981 347.1079151 22.74177488 437.53250759 122.73632812 661.77880859 C123.75839176 663.21114205 124.77195436 664.64956056 125.77929688 666.09228516 C143.7801503 691.85955113 162.96611578 708.79027025 194.1875 715.8125 C199.39236818 716.69185402 204.39728223 716.97264501 209.65625 716.98046875 C210.45421997 716.98379715 211.25218994 716.98712555 212.07434082 716.99055481 C213.75853911 716.99559443 215.4427473 716.99796406 217.12695312 716.99780273 C219.65252028 716.99996998 222.17763601 717.01810403 224.703125 717.03710938 C234.71123362 717.07063182 244.30568118 716.45296371 254.1875 714.8125 C254.36700195 714.09223633 254.54650391 713.37197266 254.73144531 712.62988281 C264.13459435 675.2866172 275.49286032 637.15457061 295.1875 603.8125 C295.78304687 602.75675781 296.37859375 601.70101562 296.9921875 600.61328125 C298.92137888 597.8138102 300.22915788 596.48335054 303.1875 594.8125 C305.81034662 594.68438699 308.06551492 594.73621169 310.65234375 594.98828125 C311.39335327 595.04641495 312.13436279 595.10454865 312.89782715 595.16444397 C315.32979339 595.36113786 317.75823321 595.58501949 320.1875 595.8125 C321.84704319 595.95898863 323.50663038 596.10497954 325.16625977 596.25048828 C329.57508021 596.644392 333.98143708 597.06169498 338.38766479 597.48348999 C352.78715145 598.85414471 367.18586012 600.13087728 381.625 601 C382.78451172 601.0714624 383.94402344 601.1429248 385.13867188 601.21655273 C389.15381677 601.44468597 393.16990702 601.63441243 397.1875 601.8125 C398.11438629 601.85553253 399.04127258 601.89856506 399.99624634 601.94290161 C422.21622808 602.94483339 444.4169622 602.93463155 466.65441895 602.88116455 C471.4694778 602.8707334 476.28454236 602.86632561 481.09960938 602.86132812 C490.46225395 602.85076461 499.82487413 602.83381439 509.1875 602.8125 C510.34212994 611.63949054 510.34212994 611.63949054 509.83984375 615.0546875 C509.73260986 615.79662354 509.62537598 616.53855957 509.51489258 617.30297852 C509.32189575 618.48331665 509.32189575 618.48331665 509.125 619.6875 C508.92136841 620.9712854 508.92136841 620.9712854 508.71362305 622.28100586 C502.5498671 659.31306286 490.15582529 694.27880481 475.375 728.625 C474.95565186 729.61387207 474.53630371 730.60274414 474.10424805 731.62158203 C467.76770201 746.00919604 459.35446201 754.08571682 446.25 762.25 C445.29053467 762.85344238 444.33106934 763.45688477 443.3425293 764.07861328 C441.3139109 765.35325664 439.28368659 766.62534736 437.25195312 767.89501953 C434.28213537 769.75328504 431.31989542 771.62306052 428.359375 773.49609375 C385.12285394 800.78412417 340.79421933 825.99782801 293.1875 844.8125 C292.1857373 845.20904785 291.18397461 845.6055957 290.15185547 846.01416016 C260.19731246 857.72238664 228.1558823 866.08650164 196.1875 869.8125 C194.98770508 869.95389404 194.98770508 869.95389404 193.76367188 870.09814453 C185.41748472 870.97183716 177.07016384 871.05467541 168.6875 871.0625 C167.93660095 871.06350708 167.1857019 871.06451416 166.41204834 871.06555176 C139.80257883 871.04145347 116.55174496 866.22275444 96.1875 847.8125 C95.37925781 847.08675781 94.57101562 846.36101563 93.73828125 845.61328125 C60.20341276 813.80645752 35.8206301 764.48403697 17.1875 722.8125 C13.77622826 726.78463399 11.3827436 730.91265495 8.9375 735.5 C3.15370301 746.11961124 -3.2309915 756.34944204 -9.60362244 766.62236023 C-13.52668149 772.95256394 -17.39033047 779.31851762 -21.25 785.6875 C-21.96165088 786.86117691 -22.67332086 788.03484224 -23.38500977 789.20849609 C-24.814116 791.56556509 -26.24284721 793.92286094 -27.67138672 796.28027344 C-30.86264753 801.54589922 -34.05909176 806.80837729 -37.25512695 812.07110596 C-38.30511424 813.80033634 -39.35476002 815.52977354 -40.40429688 817.25927734 C-43.72720017 822.7345652 -47.05245415 828.20839146 -50.38473511 833.67797852 C-51.96106108 836.26562964 -53.53623953 838.85397837 -55.11132812 841.44238281 C-55.86352053 842.67775885 -56.61627695 843.91279167 -57.36962891 845.14746094 C-58.41320516 846.85785758 -59.45469547 848.5695264 -60.49609375 850.28125 C-61.08962646 851.25513672 -61.68315918 852.22902344 -62.29467773 853.23242188 C-63.56573002 855.39302675 -64.7298783 857.55323156 -65.8125 859.8125 C-19.24943627 918.90526088 79.95046979 936.36531317 150.21746826 944.74990845 C190.26580668 949.39213501 230.63538358 951.14368564 270.921875 952.05078125 C330.03715573 953.3943749 330.03715573 953.3943749 351.0625 972.875 C365.47869834 988.23686733 366.98248302 1007.09002814 366.58984375 1027.19921875 C364.29574364 1083.87992886 332.1193196 1160.19383384 295.1875 1202.8125 C294.46949219 1203.65296875 293.75148438 1204.4934375 293.01171875 1205.359375 C242.77602121 1262.82258852 154.12201075 1292.83840066 80.6875 1305.125 C79.54707245 1305.31686386 79.54707245 1305.31686386 78.38360596 1305.51260376 C70.90916042 1306.75607661 63.49455476 1307.86279446 55.9296875 1308.390625 C45.13029938 1308.63991309 45.13029938 1308.63991309 35.9296875 1313.42578125 C33.70069137 1316.08975383 31.99901118 1318.99871035 30.29785156 1322.01757812 C28.35363162 1325.1604772 25.84810191 1327.76553228 23.3125 1330.4375 C22.55042236 1331.24840088 22.55042236 1331.24840088 21.77294922 1332.07568359 C6.75493057 1347.88487682 -10.62994453 1360.48866546 -29.8125 1370.8125 C-30.45912598 1371.16119141 -31.10575195 1371.50988281 -31.77197266 1371.86914062 C-83.52800904 1399.19026808 -152.17775432 1403.53625521 -208 1387.0625 C-218.16951437 1383.91493738 -228.04082251 1380.02274588 -237.8125 1375.8125 C-238.52438477 1375.50618652 -239.23626953 1375.19987305 -239.96972656 1374.88427734 C-301.16341252 1348.1571625 -357.93202781 1304.86674133 -383.8125 1241.8125 C-395.55324635 1211.42193987 -401.03413446 1179.97469713 -401.0625 1147.4375 C-401.06317474 1146.7286264 -401.06384949 1146.01975281 -401.06454468 1145.28939819 C-400.97414462 1084.52450826 -383.83212926 1025.47190322 -364.8762207 968.27856445 C-364.60471191 967.45719498 -364.33320312 966.6358255 -364.0534668 965.78956604 C-363.54304616 964.24796179 -363.02991863 962.70725029 -362.51367188 961.16758728 C-361.25104647 957.56775979 -361.25104647 957.56775979 -360.8125 953.8125 C-361.90413452 954.36224487 -361.90413452 954.36224487 -363.01782227 954.9230957 C-375.55080969 961.22843843 -388.0859604 967.52330309 -400.75 973.5625 C-402.14798828 974.22934814 -402.14798828 974.22934814 -403.57421875 974.90966797 C-408.08539862 977.05563308 -412.60421261 979.184021 -417.1328125 981.29296875 C-450.2884566 996.78859107 -481.44308632 1015.38652095 -508.8125 1039.8125 C-509.65554688 1040.55628906 -510.49859375 1041.30007813 -511.3671875 1042.06640625 C-513.86935234 1044.29374315 -516.34428011 1046.54758724 -518.8125 1048.8125 C-519.39708984 1049.34665527 -519.98167969 1049.88081055 -520.58398438 1050.43115234 C-530.35815713 1059.30849851 -530.35815713 1059.30849851 -539.27734375 1069.0234375 C-541.02705826 1071.06254499 -542.89646104 1072.92918277 -544.8125 1074.8125 C-548.69275687 1078.64832645 -552.267571 1082.66765994 -555.8125 1086.8125 C-556.71822194 1087.85462585 -557.62451803 1088.89625285 -558.53125 1089.9375 C-596.08420127 1130.63321888 -596.08420127 1130.63321888 -616.4453125 1179.49609375 C-616.52942383 1180.58092041 -616.61353516 1181.66574707 -616.70019531 1182.78344727 C-616.77850586 1183.92740967 -616.85681641 1185.07137207 -616.9375 1186.25 C-617.0209668 1187.43070068 -617.10443359 1188.61140137 -617.19042969 1189.82788086 C-621.47069757 1253.14527224 -600.54081735 1316.60290184 -572.8125 1372.8125 C-572.3395752 1373.77220703 -571.86665039 1374.73191406 -571.37939453 1375.72070312 C-555.4376657 1407.7512978 -534.64733472 1437.72866377 -510.3671875 1464.01171875 C-508.40819147 1466.15942541 -506.4993254 1468.3294167 -504.60180664 1470.53027344 C-501.08812092 1474.54985467 -497.4091782 1478.36103925 -493.62890625 1482.12890625 C-492.96970688 1482.78906235 -492.31050751 1483.44921844 -491.6313324 1484.12937927 C-490.24853165 1485.51285506 -488.86448924 1486.89509083 -487.47924805 1488.27612305 C-485.38019657 1490.36981669 -483.2865406 1492.46879874 -481.19335938 1494.56835938 C-479.83886214 1495.92219571 -478.48405469 1497.27572175 -477.12890625 1498.62890625 C-476.51406876 1499.24576797 -475.89923126 1499.8626297 -475.26576233 1500.4981842 C-471.48835226 1504.2556644 -467.5917348 1507.82523245 -463.55743408 1511.30567932 C-461.33403512 1513.22567364 -459.16809783 1515.2054561 -457 1517.1875 C-452.76161157 1521.00847138 -448.41370897 1524.65497331 -443.9765625 1528.2421875 C-441.5996519 1530.16430461 -439.24574057 1532.11215269 -436.8984375 1534.0703125 C-428.79500442 1540.81988276 -420.58250126 1547.34397719 -412.10546875 1553.6171875 C-408.06078881 1556.61289448 -404.06828004 1559.67393491 -400.07641602 1562.73950195 C-390.83477826 1569.83130008 -381.46312952 1576.67238636 -371.91162109 1583.33837891 C-365.15518354 1588.08313001 -358.48714124 1592.95373309 -351.8125 1597.8125 C-350.64799316 1598.65965576 -350.64799316 1598.65965576 -349.45996094 1599.52392578 C-338.4242276 1607.56580221 -327.57419761 1615.815739 -316.82714844 1624.23876953 C-313.91918175 1626.51031016 -310.99179695 1628.75608198 -308.0625 1631 C-297.07370833 1639.44445317 -286.23541932 1648.05716837 -275.49609375 1656.81640625 C-272.55646592 1659.21246053 -269.59719991 1661.5818991 -266.625 1663.9375 C-262.24066888 1667.43172362 -257.96556978 1671.04560445 -253.69628906 1674.6784668 C-250.28743282 1677.5759946 -246.84875139 1680.43013123 -243.375 1683.25 C-237.38001562 1688.13448076 -231.51548008 1693.1638136 -225.66259766 1698.21679688 C-223.79214438 1699.83005665 -221.91776355 1701.43866393 -220.04296875 1703.046875 C-212.93742481 1709.15641722 -205.95447886 1715.36951839 -199.10546875 1721.765625 C-196.49317981 1724.20356763 -193.82764023 1726.57627228 -191.15625 1728.94921875 C-185.80467171 1733.75715579 -180.69021862 1738.78270047 -175.6159668 1743.87866211 C-174.11945075 1745.38056925 -172.617617 1746.87701062 -171.11523438 1748.37304688 C-166.34914236 1753.13585132 -161.69293026 1757.95018044 -157.30834961 1763.0715332 C-155.08765856 1765.65611748 -152.76005537 1768.13156593 -150.4375 1770.625 C-146.19939299 1775.21809375 -142.15649807 1779.92520222 -138.23828125 1784.796875 C-136.45890135 1787.00892216 -134.66619447 1789.20456839 -132.85546875 1791.390625 C-87.9612902 1845.75725461 -52.5427713 1908.48897691 -28.8125 1974.8125 C-28.3887207 1975.99328125 -27.96494141 1977.1740625 -27.52832031 1978.390625 C-0.59481576 2054.24332346 11.39417211 2135.99664128 21.0625 2215.5625 C21.20802307 2216.75341248 21.35354614 2217.94432495 21.503479 2219.17132568 C24.03413245 2240.02215804 26.19151247 2260.93149678 26.8125 2281.9375 C26.84899658 2283.11248047 26.88549316 2284.28746094 26.9230957 2285.49804688 C27.02255484 2288.93602535 27.10824569 2292.37400262 27.1875 2295.8125 C27.21086426 2296.72483398 27.23422852 2297.63716797 27.25830078 2298.57714844 C29.24318297 2386.41235534 17.86061491 2482.46723794 -18.8125 2562.8125 C-19.5339091 2564.42054827 -20.2552658 2566.02862006 -20.9765625 2567.63671875 C-25.54084084 2577.69159696 -30.52675547 2587.40922095 -37.8125 2595.8125 C-40.4375 2596.75 -40.4375 2596.75 -42.8125 2596.8125 C-46.1131249 2593.5118751 -45.71642296 2589.32671451 -45.8125 2584.8125 C-45.52905908 2581.07458268 -44.93727589 2577.41903137 -44.30078125 2573.7265625 C-44.13246292 2572.68395264 -43.96414459 2571.64134277 -43.79072571 2570.56713867 C-43.43107229 2568.34125169 -43.06631294 2566.11618459 -42.69683838 2563.89190674 C-41.7276644 2558.03724354 -40.80634931 2552.17511949 -39.88671875 2546.3125 C-39.70379272 2545.14852692 -39.5208667 2543.98455383 -39.33239746 2542.78530884 C-36.955838 2527.51253039 -35.23426823 2512.20013868 -33.8125 2496.8125 C-33.69680664 2495.64074219 -33.58111328 2494.46898438 -33.46191406 2493.26171875 C-29.75509622 2454.7636106 -30.30240497 2415.21405966 -34.8125 2376.8125 C-34.94116455 2375.70626282 -35.0698291 2374.60002563 -35.20239258 2373.46026611 C-44.47802785 2293.94662958 -55.18817599 2213.98828927 -80.8125 2137.8125 C-81.19438477 2136.64960449 -81.57626953 2135.48670898 -81.96972656 2134.28857422 C-91.4394385 2105.45744388 -103.23280438 2077.90703299 -116.8125 2050.8125 C-117.29041992 2049.85408203 -117.76833984 2048.89566406 -118.26074219 2047.90820312 C-137.84570996 2008.85106796 -162.81594319 1972.07786619 -191.20703125 1938.88671875 C-193.57114187 1936.11550845 -195.85093958 1933.28322811 -198.125 1930.4375 C-203.41868691 1923.94027503 -209.17198575 1917.89503136 -214.93017578 1911.8125 C-216.830388 1909.79349371 -218.71222809 1907.75877239 -220.58984375 1905.71875 C-227.79091192 1897.91457263 -235.17958388 1890.50717447 -243.06884766 1883.40332031 C-245.69967422 1881.00308706 -248.27541469 1878.54569719 -250.85888672 1876.09472656 C-256.81499142 1870.45062829 -262.8191037 1865.03220139 -269.23828125 1859.91796875 C-272.02280348 1857.64049154 -274.66663803 1855.24937992 -277.3125 1852.8125 C-282.12036903 1848.39738646 -287.08659325 1844.24595518 -292.16650391 1840.14941406 C-294.0513221 1838.61852346 -295.92276039 1837.07214161 -297.79296875 1835.5234375 C-304.96052325 1829.58839466 -312.15950304 1823.71244998 -319.50317383 1817.99658203 C-324.91494389 1813.76851634 -330.19946496 1809.39190184 -335.48730469 1805.01049805 C-339.96068442 1801.31260557 -344.48075178 1797.68750884 -349.0625 1794.125 C-354.21849042 1790.11405076 -359.23332158 1785.96548259 -364.20239258 1781.72583008 C-368.98931431 1777.64521145 -373.87254404 1773.70548022 -378.8125 1769.8125 C-380.29363281 1768.636875 -380.29363281 1768.636875 -381.8046875 1767.4375 C-396.72921452 1755.61916122 -411.88380559 1744.11174451 -427.35546875 1733.01953125 C-434.42102196 1727.94998513 -441.40160628 1722.76449089 -448.39501953 1717.59619141 C-450.85284285 1715.7827338 -453.31451569 1713.97462249 -455.77734375 1712.16796875 C-464.8760363 1705.4901944 -473.91250776 1698.75337445 -482.8125 1691.8125 C-483.96221491 1690.92184315 -485.11195528 1690.03121916 -486.26171875 1689.140625 C-493.70987732 1683.35137914 -500.98068077 1677.38737936 -508.13867188 1671.24365234 C-509.89276848 1669.74386904 -511.65646172 1668.25597147 -513.421875 1666.76953125 C-519.46131628 1661.66693831 -525.28145653 1656.50048091 -530.80078125 1650.828125 C-532.75592337 1648.86918649 -534.77590182 1647.05270714 -536.875 1645.25 C-542.96916188 1640.00224949 -548.47242622 1634.29627586 -553.70703125 1628.19921875 C-555.91827872 1625.69259129 -558.19186563 1623.2553167 -560.47998047 1620.8190918 C-566.54462296 1614.35817513 -572.292707 1607.74979087 -577.8125 1600.8125 C-578.74356797 1599.67217685 -579.67593387 1598.53291261 -580.609375 1597.39453125 C-587.61222181 1588.81331962 -594.14275072 1579.97146182 -600.41601562 1570.84423828 C-601.30142625 1569.55605869 -602.19033417 1568.27027024 -603.08398438 1566.98779297 C-654.12674856 1493.69087676 -680.52770639 1404.29465761 -675.0625 1315.0625 C-675.01959839 1314.35595276 -674.97669678 1313.64940552 -674.93249512 1312.92144775 C-674.0267599 1298.4228043 -672.26952021 1284.134211 -669.8125 1269.8125 C-669.5033667 1268.00894043 -669.5033667 1268.00894043 -669.18798828 1266.16894531 C-663.69005975 1234.80978077 -655.78067876 1204.04212975 -645.8125 1173.8125 C-645.39860834 1172.54323498 -644.98503971 1171.27386458 -644.57177734 1170.00439453 C-634.45962435 1139.03777973 -621.95469697 1109.15037589 -607.8125 1079.8125 C-607.34247559 1078.83394043 -606.87245117 1077.85538086 -606.38818359 1076.84716797 C-599.4576977 1062.4920395 -591.83532683 1048.58366419 -583.8125 1034.8125 C-583.22984375 1033.80815918 -582.6471875 1032.80381836 -582.046875 1031.76904297 C-563.60770487 1000.10678317 -542.43628145 970.44099566 -518.6875 942.5625 C-518.25743652 942.05678467 -517.82737305 941.55106934 -517.38427734 941.0300293 C-508.68358436 930.91543376 -499.48236039 921.29572971 -490.05126953 911.8659668 C-488.30861683 910.12111192 -486.57416837 908.36836257 -484.83984375 906.61523438 C-478.13755316 899.87954357 -471.27022905 893.71233548 -463.8125 887.8125 C-462.5241841 886.73602748 -461.2408996 885.65347773 -459.96484375 884.5625 C-459.42279297 884.09972656 -458.88074219 883.63695312 -458.32226562 883.16015625 C-457.23838063 882.23111197 -456.15508214 881.30138314 -455.07226562 880.37109375 C-451.02466114 876.91858057 -451.02466114 876.91858057 -448.8125 875.8125 C-448.80992187 874.91015625 -448.80734375 874.0078125 -448.8046875 873.078125 C-447.8196057 827.83472505 -427.36589831 761.61933425 -398.74609375 725.9375 C-396.3174014 724.52444263 -394.61927181 724.64780329 -391.89916992 725.18017578 C-387.46809238 726.52292655 -383.39323883 728.71159671 -379.25 730.75 C-358.83114974 740.43021259 -336.98878876 747.4688798 -314.8125 751.8125 C-313.66974609 752.03776367 -313.66974609 752.03776367 -312.50390625 752.26757812 C-281.23232294 758.22788845 -247.68092037 759.0023495 -216.328125 753.1796875 C-213.46347528 752.7615554 -210.70412809 752.78915639 -207.8125 752.8125 C-207.46120333 762.74972126 -208.35736301 771.69456906 -210.375 781.4375 C-210.64889994 782.79204589 -210.92266002 784.14662007 -211.19628906 785.5012207 C-218.07015813 819.13232766 -228.73241172 850.55240777 -242.8125 881.8125 C-243.17504883 882.62041992 -243.53759766 883.42833984 -243.91113281 884.26074219 C-249.44345375 896.43184825 -255.04962028 903.71123063 -267.4375 909.1875 C-268.49855957 909.69547119 -269.55961914 910.20344238 -270.65283203 910.72680664 C-276.56815385 913.54074169 -282.49241814 916.10221069 -288.63220215 918.38754272 C-310.79052769 926.73252133 -322.5592084 935.44376711 -332.67529297 957.16186523 C-339.01978606 971.51358647 -341.12212285 986.00794891 -342.0625 1001.625 C-342.18262451 1003.58409302 -342.18262451 1003.58409302 -342.30517578 1005.58276367 C-345.37947054 1061.19861287 -325.69383494 1111.06916945 -289.20703125 1152.26123047 C-283.49326931 1158.61719045 -277.34666332 1164.17904503 -270.671875 1169.5078125 C-268.78041612 1171.03234903 -266.91483727 1172.58961945 -265.078125 1174.1796875 C-252.18698335 1185.32589561 -237.59574188 1194.38987311 -222.8125 1202.8125 C-221.98105469 1203.28768066 -221.14960937 1203.76286133 -220.29296875 1204.25244141 C-191.77848081 1220.42186938 -162.84605369 1232.70685187 -130.8125 1239.8125 C-129.9477002 1240.00521484 -129.08290039 1240.19792969 -128.19189453 1240.39648438 C-126.06572051 1240.86979787 -123.93915193 1241.34133844 -121.8125 1241.8125 C-121.73773437 1240.84957031 -121.66296875 1239.88664062 -121.5859375 1238.89453125 C-116.33536829 1179.81483882 -92.57802379 1117.85836611 -62.96923828 1066.82373047 C-60.87257479 1063.17824422 -58.84583879 1059.49357188 -56.8125 1055.8125 C-58.04226563 1055.45285156 -58.04226563 1055.45285156 -59.296875 1055.0859375 C-63.47431032 1053.57277759 -67.19403369 1051.60588494 -71.0625 1049.4375 C-72.23244507 1048.78309937 -72.23244507 1048.78309937 -73.42602539 1048.11547852 C-86.27480087 1040.81395559 -98.78062988 1032.68502745 -109.8125 1022.8125 C-110.97458984 1021.77416016 -110.97458984 1021.77416016 -112.16015625 1020.71484375 C-126.86676213 1006.81546152 -134.9742956 989.46871497 -135.76953125 969.2578125 C-136.67312246 925.20531185 -115.99666973 877.0178199 -97.8125 837.8125 C-97.34618164 836.80155273 -96.87986328 835.79060547 -96.39941406 834.74902344 C-85.16577347 810.51612543 -72.43329079 787.12135724 -58.80078125 764.16210938 C-56.96202775 761.06440578 -55.12955053 757.96310066 -53.29891968 754.8605957 C-38.01214603 728.95891885 -38.01214603 728.95891885 -31.60327148 718.8527832 C-26.60155801 710.95005431 -21.79680306 702.92468863 -16.96240234 694.91894531 C-16.61328796 694.34280487 -16.26417358 693.76666443 -15.90447998 693.17306519 C-14.87437751 691.46759011 -13.85436398 689.7560346 -12.83447266 688.04443359 C-10.8125 684.8125 -10.8125 684.8125 -8.63037109 681.89697266 C-4.93815775 677.06451556 -4.93815775 677.06451556 -3.85253906 671.27734375 C-4.61595227 668.33417038 -5.66879779 665.63025914 -6.8125 662.8125 C-7.44840386 660.9022819 -8.08340132 658.99170411 -8.70150757 657.07565308 C-9.39850592 654.91984726 -10.11465033 652.77116842 -10.83496094 650.62304688 C-37.92975156 569.49086849 -50.17737039 484.1840454 -55.8125 385.8125 C-55.8650293 384.80219727 -55.91755859 383.79189453 -55.97167969 382.75097656 C-58.92357256 324.56500771 -58.12117714 266.1877459 -56.85888672 207.96884155 C-56.81073177 205.73030172 -56.76364752 203.49174132 -56.71679688 201.25317383 C-56.51384134 191.5884807 -56.29329357 181.92437646 -56.05340576 172.26052856 C-55.97603097 169.13031243 -55.90394194 166.00004882 -55.83673096 162.86959839 C-55.36716314 141.27497682 -54.64543085 119.85412418 -48.6875 98.9375 C-48.38674561 97.85710449 -48.08599121 96.77670898 -47.77612305 95.66357422 C-43.51046178 80.76902663 -19.90090057 -1.3267267 0 0 Z M114.1875 1099.8125 C113.99957886 1101.09374756 113.99957886 1101.09374756 113.80786133 1102.40087891 C113.21398636 1106.41445021 112.61070337 1110.42645851 112 1114.4375 C111.89000671 1115.16069427 111.78001343 1115.88388855 111.66668701 1116.6289978 C110.0788445 1126.98188622 108.1928392 1137.18502005 105.62426758 1147.34814453 C105.4208374 1148.16782715 105.21740723 1148.98750977 105.0078125 1149.83203125 C104.82492676 1150.53432861 104.64204102 1151.23662598 104.45361328 1151.96020508 C104.01392362 1154.03830931 104.01392362 1154.03830931 105.1875 1156.8125 C160.25223918 1149.77192097 212.57291445 1135.14922726 262.1875 1109.8125 C261.8575 1109.1525 261.5275 1108.4925 261.1875 1107.8125 C258.21203196 1107.18076581 255.32355853 1106.70552575 252.3125 1106.3125 C251.34199707 1106.18504395 250.37149414 1106.05758789 249.37158203 1105.92626953 C226.1735745 1103.091315 202.72491112 1102.69194873 179.38449097 1102.26071167 C165.01694429 1101.99354493 150.70065342 1101.41135174 136.36132812 1100.47265625 C128.95464133 1099.9941038 121.61022239 1099.68121905 114.1875 1099.8125 Z M-44.8125 1146.8125 C-36.14964531 1149.73059832 -27.74602911 1151.70038469 -18.6875 1152.875 C-17.48609375 1153.03782471 -16.2846875 1153.20064941 -15.046875 1153.3684082 C-11.30409123 1153.86726697 -7.55926337 1154.34452249 -3.8125 1154.8125 C-2.6255957 1154.96106445 -1.43869141 1155.10962891 -0.21582031 1155.26269531 C14.23857355 1157.0389218 28.63116939 1158.33116182 43.1875 1158.8125 C36.10228168 1145.03070403 26.33156634 1136.54219821 12.1875 1130.8125 C-6.50951505 1125.42205351 -31.49743605 1132.84139519 -44.8125 1146.8125 Z " fill="#227B94" transform="translate(977.8125,0.1875)"/>
<path d="M0 0 C12.59801568 -0.16195013 25.06148457 0.26075444 37.625 1.1875 C38.52163361 1.25246674 39.41826721 1.31743347 40.34207153 1.3843689 C117.26075631 7.03728538 194.16306076 23.3085275 430.29003906 147.59423828 C432.6248891 149.51372237 434.99938939 151.38133433 437.375 153.25 C441.61413792 156.62850757 445.63929453 160.20808943 449.64453125 163.859375 C451.67741834 165.70684121 453.73381416 167.51707324 455.8125 169.3125 C465.50122941 177.79492516 474.75658321 186.65773318 483.875 195.75 C485.21244263 197.0805542 485.21244263 197.0805542 486.5769043 198.43798828 C491.04381309 202.91537196 495.37357576 207.44963036 499.49365234 212.24853516 C501.56408881 214.65587895 503.72057002 216.98034769 505.875 219.3125 C510.7957178 224.71491457 515.42792553 230.30168859 520 236 C520.91225289 237.12020516 521.82503803 238.23997705 522.73828125 239.359375 C546.17747401 268.20730922 566.3573073 299.30932192 584 332 C584.46905762 332.86431641 584.93811523 333.72863281 585.42138672 334.61914062 C632.45423479 421.64464124 651.29299341 523.28282267 663.203125 691.4765625 C663.21010322 693.40158612 663.21714419 695.32660951 663.22424316 697.25163269 C663.24353823 703.37609133 663.24841949 709.50051428 663.25 715.625 C663.25088371 717.18818781 663.25088371 717.18818781 663.25178528 718.78295517 C663.26403017 749.44862473 663.02040345 779.95149729 660.22460938 810.51257324 C659.99834552 813.01832242 659.78626753 815.52491148 659.578125 818.03222656 C651.83457362 910.61510498 631.9119487 1002.24165352 580 1159 C579.68780518 1159.83797119 579.37561035 1160.67594238 579.05395508 1161.53930664 C566.32029653 1195.6713591 552.71852279 1229.31563081 537.25878906 1262.31054688 C536.00491086 1264.98950776 534.76389268 1267.67417748 533.5234375 1270.359375 C527.99950867 1282.23143791 521.95792923 1293.75734656 515.57080078 1305.18652344 C513.98433951 1308.02804966 512.41180299 1310.87699302 510.83984375 1313.7265625 C493.24743785 1345.43315034 472.76442133 1375.76713004 450 1404 C449.24203125 1404.94101563 448.4840625 1405.88203125 447.703125 1406.8515625 C439.79092572 1416.58749566 431.73609419 1426.21306491 423.28100586 1435.48339844 C421.90448827 1437.00209086 420.53675561 1438.5289055 419.1862793 1440.07080078 C412.33540823 1447.85592104 405.00209125 1455.14938551 397.66137695 1462.46899414 C395.43520138 1464.68979307 393.21444368 1466.91590966 390.99414062 1469.14257812 C389.55761229 1470.57844584 388.12077389 1472.01400343 386.68359375 1473.44921875 C386.03128281 1474.10355392 385.37897186 1474.7578891 384.70689392 1475.43205261 C380.29843705 1479.81848813 375.71955668 1483.9516656 371 1488 C369.90582865 1488.95003578 368.81200402 1489.90047125 367.71875 1490.8515625 C353.89237507 1502.79155489 339.69864877 1514.15348052 325 1525 C323.46737909 1526.13532376 321.93482916 1527.27074335 320.40234375 1528.40625 C311.13430639 1535.26292017 301.81823131 1542.05088727 292.4609375 1548.78515625 C289.4805697 1550.93010804 286.50706358 1553.08406408 283.5390625 1555.24609375 C275.15398547 1561.34607936 266.68852277 1567.29782298 258.11010742 1573.12280273 C251.8695699 1577.37286255 245.7357415 1581.75590879 239.62890625 1586.1953125 C234.61505776 1589.839353 229.57106324 1593.43605863 224.5 1597 C196.9529575 1616.38554599 169.66317614 1636.25120878 143.64404297 1657.65576172 C141.40809459 1659.48396661 139.1420617 1661.27310122 136.875 1663.0625 C127.71538932 1670.37168428 118.89706197 1678.11248277 110.2265625 1685.9921875 C108.17704048 1687.84035297 106.09581862 1689.64227688 104 1691.4375 C99.94315515 1694.96270188 96.20632992 1698.77714501 92.43359375 1702.6015625 C90.3723062 1704.63307222 88.27813444 1706.51731059 86.0625 1708.375 C81.10274861 1712.6290553 76.83794771 1717.51760995 72.47949219 1722.36767578 C70.98301897 1724.01873517 69.46807233 1725.65051737 67.9453125 1727.27734375 C61.67957715 1733.9731391 55.68431176 1740.79581878 50 1748 C48.86884766 1749.42119141 48.86884766 1749.42119141 47.71484375 1750.87109375 C30.00863041 1773.47170753 16.07451289 1796.53502947 5.8125 1823.375 C-9.52819618 1862.8650222 -9.52819618 1862.8650222 -20 1872 C-22.5625 1872.375 -22.5625 1872.375 -25 1872 C-29.21409535 1865.67885697 -27.24384349 1856.511505 -25.96875 1849.3359375 C-25.49661933 1847.01201096 -25.0063044 1844.69172135 -24.5 1842.375 C-24.09406616 1840.48394531 -24.09406616 1840.48394531 -23.67993164 1838.5546875 C-7.96958141 1766.7677474 24.27335933 1692.72373495 67 1633 C67.53206055 1632.25540527 68.06412109 1631.51081055 68.61230469 1630.74365234 C79.02127423 1616.24737537 90.01532892 1602.26497866 102.078125 1589.1015625 C103.81743089 1587.19963858 105.50763131 1585.26680268 107.1875 1583.3125 C115.72540852 1573.54372595 124.71973495 1564.18854592 133.875 1555 C134.56384277 1554.30656494 135.25268555 1553.61312988 135.96240234 1552.89868164 C139.87584999 1548.99700163 143.89611582 1545.28413678 148.08007812 1541.67480469 C151.0654536 1539.07057329 153.93108564 1536.34296231 156.8125 1533.625 C161.77973093 1528.97684467 166.85576033 1524.55521464 172.16796875 1520.30078125 C175.44200846 1517.64090623 178.62521512 1514.88754758 181.8125 1512.125 C188.14617006 1506.65753209 194.66285446 1501.46447821 201.27636719 1496.34130859 C202.95491413 1495.03508523 204.62363507 1493.71742749 206.2890625 1492.39453125 C225.55894351 1477.10083955 245.48144488 1462.66609502 265.60400391 1448.52099609 C270.78952208 1444.87086151 275.93101469 1441.16309893 281.0625 1437.4375 C287.29823363 1432.91311694 293.59779314 1428.50085775 299.96337891 1424.16162109 C305.78969319 1420.17625529 311.50971117 1416.05207228 317.22094727 1411.90405273 C322.26239981 1408.24515172 327.33750325 1404.63922156 332.4375 1401.0625 C357.79710758 1383.22817298 382.82728553 1364.60067929 406.36132812 1344.40039062 C408.00932146 1342.99203398 409.66739677 1341.59643142 411.328125 1340.203125 C423.97181416 1329.552843 435.9096662 1318.15756859 447.625 1306.5 C448.26356934 1305.86610352 448.90213867 1305.23220703 449.56005859 1304.57910156 C453.33061225 1300.79563845 456.90542217 1296.89011616 460.39697266 1292.84814453 C462.50714314 1290.41531015 464.6898054 1288.05295476 466.875 1285.6875 C471.79577302 1280.2850248 476.4270049 1274.69762419 481 1269 C481.92389449 1267.86801214 482.8484029 1266.73652513 483.7734375 1265.60546875 C507.51359314 1236.44542057 527.72641332 1204.88001666 544 1171 C544.52916016 1169.89914062 545.05832031 1168.79828125 545.60351562 1167.6640625 C553.08060561 1152.02455582 560.07972158 1136.29717125 566 1120 C566.33306152 1119.08992188 566.66612305 1118.17984375 567.00927734 1117.2421875 C588.88154538 1056.72855746 598.0573462 990.38303366 602.75 926.5 C602.83874893 925.3021991 602.83874893 925.3021991 602.92929077 924.0802002 C604.60153351 901.07992595 605.21009055 878.05700018 605.1875 855 C605.18689575 853.83946106 605.1862915 852.67892212 605.18566895 851.48321533 C605.06105056 762.28532427 595.05590838 669.84853622 547 520 C546.52062988 518.90655273 546.04125977 517.81310547 545.54736328 516.68652344 C538.37393938 500.4570362 530.81678886 484.0536198 521.140625 469.1328125 C519.43108049 465.93619846 520.25863012 463.43726035 521 460 C519.68 460.33 518.36 460.66 517 461 C516.53327881 460.25447876 516.53327881 460.25447876 516.05712891 459.49389648 C502.08033878 437.195146 487.51871797 415.51497204 471 395 C470.26523438 394.0821875 469.53046875 393.164375 468.7734375 392.21875 C454.79146828 374.9319517 439.74616314 358.68532774 424.0625 342.9375 C423.28181152 342.15213867 422.50112305 341.36677734 421.69677734 340.55761719 C417.52151211 336.39394249 413.26193821 332.39510457 408.79321289 328.5480957 C406.37494947 326.46038864 404.03403531 324.29271691 401.6875 322.125 C396.28508543 317.2042822 390.69831141 312.57207447 385 308 C383.87979484 307.08774711 382.76002295 306.17496197 381.640625 305.26171875 C350.41926575 279.89223175 316.45288746 257.97313109 281 239 C280.04528809 238.48646973 279.09057617 237.97293945 278.10693359 237.44384766 C204.9497347 198.26595682 124.81651458 173.22102549 10.43457031 156.84838867 C9.4700293 156.7476001 8.50548828 156.64681152 7.51171875 156.54296875 C6.68115967 156.46071045 5.85060059 156.37845215 4.99487305 156.29370117 C3 156 3 156 1 155 C0.24280174 141.21063003 -0.27437582 127.43196399 -0.5625 113.625 C-0.59376984 112.15599747 -0.59376984 112.15599747 -0.62567139 110.65731812 C-1.39368709 73.75294141 -1.05269546 36.8947361 0 0 Z " fill="#FFDC7F" transform="translate(1003,88)"/>
<path d="M0 0 C-0.14099121 0.61818604 -0.28198242 1.23637207 -0.42724609 1.87329102 C-1.08333389 4.76819111 -1.72916135 7.66529682 -2.375 10.5625 C-2.59671875 11.53380859 -2.8184375 12.50511719 -3.046875 13.50585938 C-6.87698915 30.79769828 -7.52165593 47.84332161 -8.0047493 65.49082947 C-8.08248366 68.27936681 -8.16649456 71.06770093 -8.2505331 73.85605431 C-8.66589912 87.6565526 -9.02638586 101.45788025 -9.3125 115.26171875 C-9.33493271 116.34163589 -9.35736542 117.42155304 -9.38047791 118.53419495 C-9.48268228 123.5481488 -9.57689994 128.56208331 -9.65844727 133.57641602 C-9.68279846 134.92259758 -9.68279846 134.92259758 -9.7076416 136.29597473 C-9.73747666 137.94905545 -9.76363239 139.60220865 -9.78527832 141.25541687 C-9.84499982 144.42183061 -9.99149746 146.97449237 -11 150 C-12.62397705 150.09704224 -12.62397705 150.09704224 -14.28076172 150.19604492 C-98.81162141 155.32890298 -181.67946644 170.49979177 -309 220 C-310.27348167 220.58115186 -311.54708752 221.16203167 -312.82080078 221.74267578 C-329.06555368 229.15943443 -345.04484997 236.84573809 -360.59619141 245.64746094 C-362.92150454 246.95583335 -365.25970333 248.2365395 -367.60546875 249.5078125 C-405.10643662 269.88974984 -440.15586936 294.81389186 -473 322 C-473.87398438 322.72316406 -473.87398438 322.72316406 -474.765625 323.4609375 C-482.14591612 329.58861041 -489.28964578 335.92684638 -496.31469727 342.45825195 C-497.56191433 343.59923062 -498.82230517 344.72584596 -500.08959961 345.84448242 C-507.0961987 352.04557702 -513.73077493 358.57765947 -520.33276367 365.20239258 C-522.19142108 367.06643244 -524.05539614 368.92503512 -525.91992188 370.78320312 C-531.82663682 376.68627317 -537.61669346 382.60896309 -543 389 C-544.02123777 390.16859267 -545.04467575 391.33526626 -546.0703125 392.5 C-569.96168608 419.81992322 -590.98275801 449.09166374 -610 480 C-610.39348633 480.63921387 -610.78697266 481.27842773 -611.19238281 481.93701172 C-613.84373916 486.26296933 -616.43690078 490.62124241 -619 495 C-619.44811035 495.76473633 -619.8962207 496.52947266 -620.35791016 497.31738281 C-660.57676891 566.21344475 -679.98672671 641.00735497 -680.203125 720.765625 C-680.20595238 721.49149559 -680.20877975 722.21736618 -680.21169281 722.96523285 C-680.2265583 726.82464434 -680.23586107 730.68401984 -680.24023438 734.54345703 C-680.2445678 737.64546807 -680.25827581 740.74719291 -680.28125 743.84912109 C-680.48674189 772.21276523 -678.98547909 800.36007753 -674.75 828.4375 C-674.59609802 829.48032639 -674.59609802 829.48032639 -674.43908691 830.54421997 C-669.42323049 864.42764019 -662.46282383 898.25279543 -651.9375 930.875 C-646.43892881 948.41995413 -650.3011096 962.65444954 -655 980 C-655.32677734 981.22025879 -655.65355469 982.44051758 -655.99023438 983.69775391 C-664.3021501 1014.42413569 -674.97005848 1044.75036922 -690.75 1072.5 C-691.40355469 1073.65749756 -691.40355469 1073.65749756 -692.0703125 1074.83837891 C-694.86430562 1079.5913422 -697.6844805 1083.52047119 -702 1087 C-704.68652344 1086.65039062 -704.68652344 1086.65039062 -707 1086 C-724.17444389 1033.29295718 -734.88394312 978.38357751 -738 923 C-738.04130035 922.28977692 -738.08260071 921.57955383 -738.12515259 920.84780884 C-738.9417276 906.54151003 -739.20239908 892.26558863 -739.1875 877.9375 C-739.18689575 876.85117279 -739.1862915 875.76484558 -739.18566895 874.64559937 C-739.06011686 790.8051319 -724.89245196 707.45585476 -633.61523438 445.38623047 C-632.22580413 442.4733832 -630.84596225 439.55620851 -629.46932983 436.63729858 C-617.23276652 410.72725836 -603.74639167 385.57864152 -589 361 C-588.37512695 359.95634277 -587.75025391 358.91268555 -587.10644531 357.83740234 C-567.49667638 325.20867923 -545.60391667 294.27378047 -521.49707031 264.83349609 C-520.16580047 263.20305961 -518.84393831 261.56495181 -517.5234375 259.92578125 C-512.96900522 254.28504445 -508.2283626 248.87097219 -503.3203125 243.53515625 C-501.42718797 241.46674242 -499.57748296 239.37594124 -497.75 237.25 C-488.92665704 227.13991952 -479.59571954 217.50122849 -470.125 208 C-468.9488916 206.81700317 -468.9488916 206.81700317 -467.74902344 205.61010742 C-463.5659321 201.43809888 -459.29984256 197.43123721 -454.82226562 193.57714844 C-452.21688501 191.32222363 -449.70884796 188.97355628 -447.1875 186.625 C-442.61702095 182.40725913 -437.9306113 178.3904736 -433.08203125 174.4921875 C-430.76835882 172.62130916 -428.47813421 170.73268121 -426.19921875 168.8203125 C-415.77761994 160.09677407 -405.03115131 151.93538778 -394 144 C-393.29939453 143.49259277 -392.59878906 142.98518555 -391.87695312 142.46240234 C-320.69960202 90.97926111 -240.16630504 53.09011096 0 0 Z " fill="#FFDC7F" transform="translate(907,91)"/>
<path d="M0 0 C8.58 0 17.16 0 26 0 C26.00586624 2.02875275 26.01173248 4.05750549 26.01777649 6.1477356 C26.07441989 25.24750458 26.1474875 44.34716017 26.23571491 63.44680977 C26.28068014 73.26661226 26.32009315 83.08637843 26.34643555 92.90625 C26.36940971 101.46526778 26.40280126 110.02417067 26.44870156 118.58309734 C26.4726416 123.11497699 26.49136527 127.64674279 26.49761391 132.17868423 C26.50366122 136.44522874 26.52364824 140.71148194 26.55427551 144.97791862 C26.56306141 146.54278351 26.56677717 148.10768645 26.56500816 149.672575 C26.56335331 151.81217335 26.5800712 153.95088587 26.60127258 156.09036255 C26.60588155 157.28684984 26.61049051 158.48333714 26.61523914 159.71608162 C27.04758003 163.40609365 28.0864724 165.83279781 30 169 C36.97257696 173.3551552 46.75022954 172.4347498 54.625 172.3984375 C56.02164867 172.40046429 57.41829631 172.40338072 58.81494141 172.40713501 C61.72634059 172.41153001 64.63746157 172.40521954 67.54882812 172.39111328 C71.25381628 172.37402273 74.95815215 172.38387925 78.66311646 172.40183067 C81.54244779 172.41274564 84.42162812 172.40918717 87.30096436 172.4014473 C89.32255484 172.39851361 91.34415154 172.40751769 93.36572266 172.4168396 C106.77627594 172.31524778 116.47075932 169.38028088 126.171875 159.87109375 C132.91179071 152.20874432 137.69400896 143.25905973 142.7890625 134.46875 C154.47765218 114.38746088 169.03723659 91.57320809 192.25 84 C205.24439545 81.07007775 218.34542095 82.23814388 230.0625 88.5625 C242.79306583 96.74358462 249.41055146 109.58002578 252.875 123.9375 C258.84061533 152.59510781 253.18221027 180.32205945 240 206 C197.17217319 206.63980895 197.17217319 206.63980895 183 203 C182.31437988 202.82839355 181.62875977 202.65678711 180.92236328 202.47998047 C166.95248539 198.85552108 154.52890682 192.73965517 143 184 C142.113125 184.825 141.22625 185.65 140.3125 186.5 C137.00914374 189.2992296 133.56321494 191.75809074 129.9375 194.125 C128.95652344 194.76695312 127.97554687 195.40890625 126.96484375 196.0703125 C115.87261433 202.02229378 104.32344123 202.59545114 92.0859375 202.49609375 C90.49801568 202.49624928 88.9100935 202.49774721 87.32217407 202.50050354 C84.01929623 202.50187631 80.71685856 202.4895177 77.4140625 202.46655273 C73.2139043 202.43812441 69.01447288 202.44093328 64.81426048 202.45364285 C61.54367023 202.46064778 58.27324345 202.45275706 55.0026741 202.44038582 C53.45517227 202.43592121 51.90765258 202.43548998 50.36014938 202.43945122 C38.35117263 202.45581592 27.36703696 201.6043981 16.9375 195.0859375 C14.87733883 193.9312504 13.35278802 193.25059281 11 193 C9.10367148 193.85986655 9.10367148 193.85986655 7.3125 195.25 C0.26909759 199.98064341 -7.8171826 202.12345346 -16.27514648 202.12698364 C-17.83965042 202.13121338 -17.83965042 202.13121338 -19.4357605 202.13552856 C-20.56942047 202.13350433 -21.70308044 202.1314801 -22.87109375 202.12939453 C-24.07323517 202.13114685 -25.27537659 202.13289917 -26.51394653 202.13470459 C-29.80315112 202.13834753 -33.09231535 202.13749936 -36.38151932 202.1343255 C-39.82783339 202.13178935 -43.27414481 202.13414294 -46.72045898 202.13571167 C-52.50732912 202.13752969 -58.29418649 202.13513667 -64.08105469 202.13037109 C-70.76630012 202.12492918 -77.45151506 202.12669209 -84.13675976 202.1321975 C-89.88211674 202.13673907 -95.62746456 202.13737406 -101.37282276 202.13475883 C-104.80184746 202.13320181 -108.23085782 202.13298654 -111.65988159 202.13629532 C-115.48291086 202.13883169 -119.30588136 202.13496722 -123.12890625 202.12939453 C-124.82939621 202.13243088 -124.82939621 202.13243088 -126.5642395 202.13552856 C-127.60724213 202.13270874 -128.65024475 202.12988892 -129.72485352 202.12698364 C-131.07982689 202.1264181 -131.07982689 202.1264181 -132.46217346 202.12584114 C-135.06246672 201.99690251 -137.46403107 201.57496931 -140 201 C-139.7834375 201.56203125 -139.566875 202.1240625 -139.34375 202.703125 C-134.73603889 216.61158631 -135.3669004 233.46366757 -141.25390625 246.8515625 C-147.73477136 259.67202046 -157.31503745 268.39797743 -170.8125 273.4375 C-187.64832004 278.07840027 -205.17656239 275.52492626 -220.625 267.9375 C-237.3005169 258.44058976 -249.64617367 242.51568808 -254.875 224.0625 C-256.25173272 218.26839789 -257.04385694 212.7449504 -257.01953125 206.78515625 C-257.01671143 205.88804932 -257.0138916 204.99094238 -257.01098633 204.06665039 C-257.00736084 203.38465576 -257.00373535 202.70266113 -257 202 C-258.02571106 202.00666183 -259.05142212 202.01332367 -260.10821533 202.02018738 C-269.81709831 202.08124017 -279.52594188 202.12608803 -289.23497391 202.15543652 C-294.22541613 202.17103254 -299.21570227 202.19215894 -304.20605469 202.22631836 C-309.03011338 202.25912945 -313.85402277 202.27689851 -318.67818451 202.28463173 C-320.51040748 202.29013645 -322.34262311 202.30088485 -324.1747818 202.31719017 C-337.12995311 202.4278054 -348.7211652 202.11056976 -360 195 C-360.66 195 -361.32 195 -362 195 C-363.98 198.63 -365.96 202.26 -368 206 C-370.17529297 205.58041016 -370.17529297 205.58041016 -372.39453125 205.15234375 C-386.37041414 202.49150724 -400.37865807 200.01385268 -414.4102478 197.66531372 C-416.28338665 197.35014135 -418.15582848 197.03079415 -420.02749634 196.70700073 C-439.17253857 192.56852983 -439.17253857 192.56852983 -457.6875 196.0625 C-462.13256231 199.4542758 -464.24715234 203.74145702 -466 209 C-467.1511176 224.07381287 -465.39824937 239.18736016 -463.5625 254.125 C-463.21403809 257.05722088 -462.86917911 259.98984941 -462.52474976 262.92254639 C-462.30588706 264.78409153 -462.08557635 266.64546711 -461.86367798 268.50665283 C-461.09508533 274.99880939 -460.47834825 281.47906873 -460 288 C-467.92 288 -475.84 288 -484 288 C-486.25138363 276.74308185 -486.25138363 276.74308185 -486.68603516 272.69995117 C-486.78598785 271.78747116 -486.88594055 270.87499115 -486.98892212 269.93486023 C-487.08796844 268.98053604 -487.18701477 268.02621185 -487.2890625 267.04296875 C-487.39721283 266.01931717 -487.50536316 264.99566559 -487.61679077 263.94099426 C-487.84279775 261.78230054 -488.06619737 259.6233324 -488.28710938 257.46411133 C-488.62028314 254.2332406 -488.96989324 251.00443004 -489.3203125 247.77539062 C-491.89410669 223.30050025 -494.24124917 198.73524531 -478.25 178.0625 C-471.4420412 170.8712513 -462.40796744 166.11443894 -452.50268555 165.68603516 C-450.81834291 165.66265822 -449.13370528 165.65620517 -447.44921875 165.6640625 C-446.08019661 165.66848862 -446.08019661 165.66848862 -444.68351746 165.67300415 C-434.22306013 165.84378758 -424.08950397 167.54893942 -413.8125 169.375 C-411.92148683 169.69686075 -410.03021017 170.01717736 -408.13867188 170.3359375 C-399.73163709 171.76506137 -391.35612671 173.29661634 -383 175 C-382.6864357 173.14601302 -382.37420451 171.29180056 -382.0625 169.4375 C-381.88847656 168.40496094 -381.71445312 167.37242187 -381.53515625 166.30859375 C-381.35855469 165.21675781 -381.18195313 164.12492187 -381 163 C-380.81824219 161.89011719 -380.63648438 160.78023437 -380.44921875 159.63671875 C-378.94888529 147.49054088 -378.29539886 132.21627749 -384.875 121.4375 C-389.62449151 115.98955386 -393.97859308 113.4731067 -401.1875 112.625 C-411.07455029 113.59749675 -418.42573794 117.63682649 -425 125 C-431.97011808 133.88110133 -437.99294258 143.45255126 -444 153 C-451.79987775 148.98921015 -458.86330771 144.06297026 -466 139 C-465.43614766 135.39717255 -464.53226779 132.82380638 -462.59375 129.7421875 C-461.85584229 128.56450806 -461.85584229 128.56450806 -461.10302734 127.36303711 C-460.57402832 126.54198486 -460.0450293 125.72093262 -459.5 124.875 C-458.95682129 124.02623291 -458.41364258 123.17746582 -457.85400391 122.30297852 C-453.63594052 115.80080339 -449.22281208 109.74323464 -444 104 C-443.23429687 103.14148437 -442.46859375 102.28296875 -441.6796875 101.3984375 C-431.15538094 90.19732666 -419.13139166 83.1692732 -403.6809082 82.65283203 C-390.86217197 82.49380102 -380.44665753 85.48112275 -370.6171875 94.0859375 C-355.19739261 109.81935533 -352.94856559 131.59305385 -352.5703125 152.59960938 C-352.38525414 158.4559353 -351.8601415 162.84202637 -349 168 C-343.58063207 172.27844836 -337.5540036 172.15421552 -330.9050293 172.20532227 C-330.10450638 172.21522186 -329.30398346 172.22512146 -328.47920227 172.23532104 C-325.84423742 172.26680277 -323.20925456 172.29164055 -320.57421875 172.31640625 C-318.74290001 172.3369873 -316.9115859 172.35798407 -315.08027649 172.37937927 C-310.26841996 172.43448111 -305.45652141 172.48394267 -300.64459229 172.53222656 C-295.73112259 172.58252855 -290.81771366 172.63816916 -285.90429688 172.69335938 C-276.26958321 172.80079548 -266.6348167 172.90227257 -257 173 C-257.00516632 171.76697144 -257.01033264 170.53394287 -257.01565552 169.2635498 C-257.01983413 167.62817413 -257.02388629 165.99279813 -257.02783203 164.35742188 C-257.03156326 163.54682312 -257.03529449 162.73622437 -257.03913879 161.90106201 C-257.04975614 156.02911288 -256.76987423 150.31068469 -255.875 144.5 C-255.67922363 143.19772461 -255.67922363 143.19772461 -255.47949219 141.86914062 C-252.0518913 120.99953524 -243.11947357 100.85589582 -226.73046875 86.94921875 C-213.22856009 77.31051714 -197.2929609 72.11447363 -180.6953125 74.46875 C-166.79227287 77.02423212 -154.81867229 82.91823388 -146.1875 94.4140625 C-137.11113686 108.70933444 -134.57003884 125.67856832 -137.68359375 142.26171875 C-140.05536547 151.83737802 -143.95819721 160.20123378 -150 168 C-148.18960529 168.48706051 -146.37653433 168.96417519 -144.5625 169.4375 C-143.55316406 169.70433594 -142.54382813 169.97117187 -141.50390625 170.24609375 C-133.58035307 171.95093853 -125.72182266 172.14885054 -117.64038086 172.14526367 C-116.54000992 172.14862228 -115.43963898 172.1519809 -114.30592346 172.15544128 C-110.69221855 172.16488995 -107.07856023 172.16689102 -103.46484375 172.16796875 C-100.94096355 172.17118446 -98.41708354 172.17454876 -95.89320374 172.17805481 C-90.61361389 172.18403005 -85.33403577 172.18593926 -80.05444336 172.18530273 C-73.96785886 172.18470134 -67.88136281 172.195273 -61.7948007 172.2110464 C-55.91563435 172.22573425 -50.03650286 172.22928989 -44.15732002 172.22869301 C-41.66590576 172.22987121 -39.17449081 172.23428399 -36.6830883 172.24202538 C-33.19872585 172.25184267 -29.71459087 172.24894069 -26.23022461 172.24291992 C-25.20714203 172.24853943 -24.18405945 172.25415894 -23.12997437 172.25994873 C-16.65039443 172.23155508 -10.14919872 172.15471491 -4.625 168.375 C0.44838299 160.96005564 -0.69293928 151.18621156 -0.68115234 142.58789062 C-0.67184326 141.03007493 -0.66167314 139.47226417 -0.65071106 137.91445923 C-0.62350739 133.70433388 -0.60829034 129.49424182 -0.59528303 125.2840519 C-0.57961017 120.87711412 -0.55283326 116.47024388 -0.5272522 112.06335449 C-0.48053781 103.7267277 -0.44375825 95.3900881 -0.41057932 87.05339766 C-0.37230597 77.5587923 -0.32290951 68.06425491 -0.27259517 58.56970692 C-0.16938452 39.04652028 -0.08048342 19.52329265 0 0 Z M-217 117 C-230.01334156 132.51919289 -231.65459576 153.62881432 -231 173 C-209.67753985 172.67648681 -188.82262341 167.47992359 -173.08984375 152.296875 C-165.3691661 143.81134517 -162.43073258 136.04898415 -162.625 124.55078125 C-163.26351218 118.50486903 -165.31711411 113.639211 -169.6796875 109.34765625 C-185.15322012 97.48461458 -204.94920143 104.11379079 -217 117 Z M182 125 C178.39770141 129.50142303 175.17343576 134.19034832 172 139 C171.4642334 139.79986328 170.9284668 140.59972656 170.37646484 141.42382812 C168.67098643 143.97985236 166.98816965 146.54935181 165.3125 149.125 C164.49966553 150.35162354 164.49966553 150.35162354 163.67041016 151.60302734 C163.17718262 152.37598145 162.68395508 153.14893555 162.17578125 153.9453125 C161.50929565 154.97422607 161.50929565 154.97422607 160.8293457 156.02392578 C159.82793121 157.97337734 159.82793121 157.97337734 160.20385742 160.13061523 C162.32429224 165.10950803 170.20311897 167.82082304 175 170 C190.70203062 176.26960985 207.26618865 177.43844047 224 177 C229.98921028 160.66579014 231.75298187 141.69105471 226 125 C223.05754306 119.31801419 218.93926019 115.31328647 213.0625 112.6875 C200.33858975 109.83111198 190.34016711 115.77145261 182 125 Z M-183.64331055 191.93066406 C-199.0042858 198.48853621 -214.43678178 200.69823724 -231 202 C-231.36231679 213.53616659 -227.26775564 224.07858677 -220 233 C-211.48317842 241.5025076 -201.37329223 246.05976435 -189.375 246.3125 C-181.8228833 246.22623491 -175.66862567 245.27238677 -169.90234375 240.12890625 C-163.67287351 233.36219217 -162.53500107 227.81493586 -162.6875 218.703125 C-163.5888805 208.02176613 -168.27406882 199.38231052 -175.25 191.4375 C-178.31863786 188.91683318 -180.26902484 190.47953912 -183.64331055 191.93066406 Z " fill="#16325B" transform="translate(507,2342)"/>
<path d="M0 0 C12.7951618 11.21350947 20.35053559 26.0521827 22 43 C22.30730043 50.41210902 22.18955142 57.8338946 22.125 65.25 C22.11494943 67.26692264 22.10582726 69.28385012 22.09765625 71.30078125 C22.07580895 76.20064238 22.04139364 81.10026661 22 86 C31.45855972 85.91526073 40.91694636 85.82025023 50.3752718 85.71247292 C54.76813471 85.66273174 59.16097612 85.61640156 63.55395508 85.578125 C67.80104896 85.54098974 72.04795258 85.49455717 76.29488182 85.44193649 C77.90737729 85.42354135 79.51991331 85.40837981 81.13247108 85.39665604 C96.99407072 85.27731273 109.93408502 84.33671142 122 73 C128.37763795 65.35328738 133.38903127 56.77444615 138.375 48.1875 C150.63313629 27.08108658 164.92606817 3.6924391 189.86108398 -3.53979492 C200.62553974 -5.85585463 214.31680486 -5.31496131 224 0 C224.78246094 0.4125 225.56492187 0.825 226.37109375 1.25 C238.76820833 8.60882687 245.28888529 21.82263574 248.8125 35.375 C254.99138679 61.96293709 250.47948857 91.50719228 238.52734375 115.875 C236.66877154 118.4608396 236.06726475 118.49321173 233 119 C199.84545533 120.70147957 167.13495916 117.64752065 140 97 C136.6566049 98.48510716 134.20122303 100.43123617 131.4375 102.8125 C117.92044429 113.70507628 102.01635642 115.46456459 85.16064453 115.36889648 C83.62790662 115.3713718 82.09517042 115.37521756 80.56243896 115.38031006 C77.29085724 115.38857637 74.01945003 115.38790214 70.74786758 115.38012505 C65.55870958 115.36842184 60.36977029 115.38080421 55.18063354 115.39674377 C42.2955656 115.43273558 29.41050438 115.43917473 16.52539062 115.43664551 C6.49792894 115.43492768 -3.52935068 115.44223606 -13.55676186 115.47662407 C-18.69899296 115.49327241 -23.84077694 115.49175113 -28.98300529 115.47580135 C-32.20040319 115.46994451 -35.41759562 115.48085004 -38.63495636 115.49604797 C-40.10857426 115.49972796 -41.58222865 115.49680302 -43.05581284 115.48617744 C-58.3023645 115.38370208 -73.82143147 117.93633269 -86.3125 127.3125 C-92.53794342 133.53794342 -95.68965024 140.09916879 -96 149 C-95.12418031 156.50544219 -91.73405535 162.15310039 -86 167 C-72.1590841 176.19534897 -54.39163603 176.98282808 -38.47192383 173.92041016 C-36.61126193 173.52372082 -34.75836641 173.09109472 -32.90625 172.65625 C-30 172 -30 172 -27 172 C-25.65909207 175.7681831 -24.3285821 179.53995521 -23 183.3125 C-22.6184375 184.38435547 -22.236875 185.45621094 -21.84375 186.56054688 C-21.4828125 187.58857422 -21.121875 188.61660156 -20.75 189.67578125 C-20.41484375 190.62364502 -20.0796875 191.57150879 -19.734375 192.5480957 C-19 195 -19 195 -19 198 C-20.95395654 198.80240849 -22.91346768 199.59129309 -24.875 200.375 C-25.96554688 200.81585937 -27.05609375 201.25671875 -28.1796875 201.7109375 C-47.368838 208.61369423 -71.15736898 206.96652527 -89.56884766 198.62207031 C-103.95373399 191.67656964 -114.27825823 181.59688224 -120.08984375 166.6640625 C-124.9674191 152.38721105 -123.07693287 134.74025921 -116.71484375 121.28125 C-107.5591643 104.75512108 -92.52988564 93.93255607 -74.625 88.6875 C-68.3781126 86.98576171 -62.48120342 85.87231178 -55.99462891 85.88647461 C-54.83387848 85.88655014 -53.67312805 85.88662567 -52.47720337 85.88670349 C-51.23949188 85.89186478 -50.0017804 85.89702606 -48.7265625 85.90234375 C-46.80824112 85.90446617 -46.80824112 85.90446617 -44.85116577 85.90663147 C-41.46788664 85.91126978 -38.08467614 85.92023919 -34.70141602 85.93133545 C-31.24235626 85.94160485 -27.78328939 85.94614089 -24.32421875 85.95117188 C-17.54946034 85.96218391 -10.77473413 85.97890936 -4 86 C-4.06933483 80.34365706 -4.15751903 74.68802134 -4.26245117 69.03222656 C-4.29550746 67.11205963 -4.32359812 65.19180003 -4.34643555 63.27148438 C-4.38033941 60.49569561 -4.43266909 57.72074148 -4.48828125 54.9453125 C-4.49467117 54.1001004 -4.5010611 53.25488831 -4.50764465 52.38406372 C-4.74791396 42.4294207 -7.51360154 33.64573212 -14 26 C-26.4354152 14.22046113 -42.13534122 13.35701527 -58.390625 13.609375 C-71.07920936 14.12047384 -83.07014159 17.9004474 -95 22 C-96.67613728 18.56703905 -98.33925697 15.12793117 -100 11.6875 C-100.47695312 10.71103516 -100.95390625 9.73457031 -101.4453125 8.72851562 C-101.89648438 7.79072266 -102.34765625 6.85292969 -102.8125 5.88671875 C-103.23144531 5.02264404 -103.65039062 4.15856934 -104.08203125 3.26831055 C-105 1 -105 1 -105 -2 C-72.52234043 -19.40491597 -30.1759524 -25.73692341 0 0 Z M175.56640625 41.03125 C172.9092648 44.59821115 170.45427908 48.29199765 168 52 C167.45891602 52.79986328 166.91783203 53.59972656 166.36035156 54.42382812 C164.63695054 56.97824162 162.94003895 59.54841546 161.25 62.125 C160.69973145 62.94274902 160.14946289 63.76049805 159.58251953 64.60302734 C159.08606934 65.37598145 158.58961914 66.14893555 158.078125 66.9453125 C157.40378418 67.97422607 157.40378418 67.97422607 156.71582031 69.02392578 C155.75868753 71.02325651 155.75868753 71.02325651 156.72900391 73.14428711 C163.27906672 82.70768077 181.04552454 86.11733506 191.625 88.3125 C200.9560413 89.70305908 210.59204998 89.16324526 220 89 C223.89477171 79.44010579 225.37583799 70.43461577 225.3125 60.125 C225.30686035 59.16190918 225.3012207 58.19881836 225.29541016 57.20654297 C225.12870593 47.42381096 224.28169358 38.34611009 217.71875 30.625 C213.17954065 26.33338388 208.77912893 24.77783816 202.5625 24.5 C190.7560262 25.0366579 182.73921672 32.0968986 175.56640625 41.03125 Z " fill="#16325B" transform="translate(122,2129)"/>
<path d="M0 0 C1.76183323 10.0302387 0.11191652 17.92251597 -3.10205078 27.328125 C-4.13210795 30.39309119 -5.09535745 33.47589623 -6.05859375 36.5625 C-11.58169222 54.02878166 -16.95915273 68.72030938 -30 82 C-31.07207131 83.22082761 -32.13493728 84.44981318 -33.1875 85.6875 C-43.96034431 98.03502921 -55.240289 110.36262341 -67.71875 121 C-70.19288607 123.1691056 -72.58922193 125.40870941 -74.98730469 127.66113281 C-80.57838162 132.91118098 -86.24032518 137.96434169 -92.23046875 142.76171875 C-94.76748617 144.81208685 -97.25324431 146.9078576 -99.73022461 149.02954102 C-106.0017799 154.3981115 -112.4344935 159.51363733 -119.01806641 164.49511719 C-121.30367147 166.23057784 -123.5796766 167.97825436 -125.85546875 169.7265625 C-137.09815395 178.35075905 -148.45054062 186.79131506 -160 195 C-161.04269043 195.7412915 -161.04269043 195.7412915 -162.10644531 196.49755859 C-167.0599395 200.01409947 -172.02734222 203.51062622 -177 207 C-177.76505859 207.53705566 -178.53011719 208.07411133 -179.31835938 208.62744141 C-194.83619558 219.51598045 -210.40289744 230.33433798 -225.97265625 241.1484375 C-243.8185307 253.5463455 -261.56128128 266.03351723 -279 279 C-279.69480469 279.515625 -280.38960937 280.03125 -281.10546875 280.5625 C-313.0285554 304.27326455 -343.41497015 329.42727835 -371.63583374 357.46060181 C-372.77788902 358.59460104 -373.92141922 359.7271172 -375.06655884 360.85800171 C-381.44812156 367.16843779 -387.48896574 373.53285355 -393.05395508 380.58642578 C-395.04478445 383.05554374 -397.14471762 385.37320045 -399.3125 387.6875 C-413.66547511 403.48573997 -425.67608889 421.95609113 -437 440 C-438.32 439.67 -439.64 439.34 -441 439 C-443.53540946 391.67235668 -408.01046315 346.95220676 -379.1875 313.125 C-378.51364258 312.33198486 -378.51364258 312.33198486 -377.82617188 311.52294922 C-368.60595842 300.78414998 -358.81186322 290.64916674 -348.79223633 280.66186523 C-346.80107223 278.67610324 -344.81536779 276.6849926 -342.83007812 274.69335938 C-336.7238242 268.58353062 -330.62222586 262.55573565 -324 257 C-322.77284359 255.93186186 -321.54759873 254.86152386 -320.32421875 253.7890625 C-312.98448482 247.39565273 -305.58446746 241.10304466 -298 235 C-296.89699734 234.10303435 -295.79414076 233.20588904 -294.69140625 232.30859375 C-284.34035448 223.92072144 -273.7009421 215.93423674 -263 208 C-262.18950195 207.39865234 -261.37900391 206.79730469 -260.54394531 206.17773438 C-237.77746028 189.30342591 -214.63841523 173.00178933 -191.36987305 156.82983398 C-183.56213247 151.39971039 -175.78513582 145.92749847 -168.02392578 140.43115234 C-165.95442381 138.9677723 -163.88194395 137.50870312 -161.80859375 136.05078125 C-145.06424646 124.27301035 -128.55244774 112.24923343 -112.31640625 99.77734375 C-110.32933463 98.25269352 -108.33815918 96.73377738 -106.34375 95.21875 C-98.3718327 89.14114968 -90.58887061 82.84747167 -82.83349609 76.49707031 C-81.20305961 75.16580047 -79.56495181 73.84393831 -77.92578125 72.5234375 C-72.28792707 67.9713327 -66.87664833 63.23300382 -61.54296875 58.328125 C-59.42932946 56.39305738 -57.29340152 54.49791703 -55.125 52.625 C-45.98355495 44.64466591 -37.21913823 36.31507423 -28.625 27.75 C-27.50182373 26.63371216 -27.50182373 26.63371216 -26.35595703 25.49487305 C-21.69940385 20.8253533 -17.28709382 16.00931136 -13 11 C-11.26128244 8.98936716 -9.50990093 6.99234068 -7.75 5 C-6.91984375 4.05125 -6.0896875 3.1025 -5.234375 2.125 C-3 0 -3 0 0 0 Z " fill="#78B7D0" transform="translate(1368,1260)"/>
<path d="M0 0 C1.7802356 -0.0141394 1.7802356 -0.0141394 3.59643555 -0.02856445 C12.58482091 0.00541204 19.86400507 0.49582541 27.1875 6.25 C31.98792366 13.45063549 30.34859066 23.19518732 28.85522461 31.34082031 C21.85214286 64.60819562 1.82532988 97.10038601 -21.28515625 121.5703125 C-23.59214047 124.01635759 -25.80272426 126.51828598 -28 129.0625 C-31.65683627 133.1828789 -35.60592505 136.70505522 -39.8125 140.25 C-40.79734375 141.12269531 -41.7821875 141.99539063 -42.796875 142.89453125 C-65.61773358 163.05458631 -110.36892775 200.25 -141.8125 200.25 C-140.25017979 196.57043709 -137.97665918 194.08484207 -135.25 191.1875 C-131.83641359 187.51749396 -128.57294817 183.79001115 -125.4375 179.875 C-121.04905873 174.43613395 -116.34803588 169.34271096 -111.5859375 164.234375 C-107.27021049 159.60441002 -103.14945457 154.81583818 -99.0390625 150.00390625 C-98.0053284 148.79416823 -96.97147086 147.58453567 -95.9375 146.375 C-95.41905518 145.76841553 -94.90061035 145.16183105 -94.36645508 144.53686523 C-90.5819821 140.12016405 -86.72518 135.77609281 -82.81640625 131.46875 C-80.99938018 129.45691607 -79.21305608 127.42339566 -77.4375 125.375 C-71.00001532 117.99434896 -64.41008894 110.74597205 -57.41796875 103.88671875 C-55.03225193 101.45456462 -52.84550641 98.85967374 -50.625 96.27734375 C-48.78395619 94.21807277 -46.85669433 92.29863688 -44.875 90.375 C-41.85637236 87.41251111 -39.17999938 84.31063007 -36.55859375 80.9921875 C-35.85275146 80.10128418 -35.14690918 79.21038086 -34.41967773 78.29248047 C-33.88930908 77.61846191 -33.35894043 76.94444336 -32.8125 76.25 C-65.16476833 79.84290469 -95.29693449 85.74981883 -124.06347656 101.74487305 C-125.30242676 102.42803589 -125.30242676 102.42803589 -126.56640625 103.125 C-127.29158447 103.53492188 -128.0167627 103.94484375 -128.76391602 104.3671875 C-130.8125 105.25 -130.8125 105.25 -134.8125 105.25 C-136.21590348 92.17755652 -132.13906137 79.75321192 -128.8125 67.25 C-128.59400391 66.40195801 -128.37550781 65.55391602 -128.15039062 64.68017578 C-124.95543079 52.3320179 -120.69823953 35.92071206 -109.22265625 28.890625 C-107.78143233 28.07938006 -106.33159925 27.28330286 -104.875 26.5 C-104.09084717 26.07243408 -103.30669434 25.64486816 -102.4987793 25.2043457 C-70.21620705 7.97279672 -36.45483778 0.21999221 0 0 Z " fill="#78B7D0" transform="translate(598.8125,461.75)"/>
<path d="M0 0 C8.58 0 17.16 0 26 0 C26 30.03 26 60.06 26 91 C60.98 91 95.96 91 132 91 C132 60.97 132 30.94 132 0 C140.25 0 148.5 0 157 0 C157 39.6 157 79.2 157 120 C113.77 120 70.54 120 26 120 C26 127.26 26 134.52 26 142 C23.72592593 155.39176954 18.36919921 167.47435243 7.25 175.625 C-2.03529471 181.85646445 -11.07009448 185.13905467 -22.29296875 185.046875 C-23.36442139 185.04010742 -24.43587402 185.03333984 -25.53979492 185.02636719 C-26.75759644 185.01331543 -26.75759644 185.01331543 -28 185 C-28.6719902 181.08422732 -29.33666742 177.1672478 -30 173.25 C-30.19078125 172.13882813 -30.3815625 171.02765625 -30.578125 169.8828125 C-30.84882812 168.27792969 -30.84882812 168.27792969 -31.125 166.640625 C-31.29257812 165.65610352 -31.46015625 164.67158203 -31.6328125 163.65722656 C-32 161 -32 161 -32 157 C-30.94941406 156.90203125 -29.89882813 156.8040625 -28.81640625 156.703125 C-15.86964475 155.82244328 -15.86964475 155.82244328 -5.38671875 149.1015625 C-1.91810718 143.8449061 -0.88146777 139.52375612 -0.84178162 133.24200439 C-0.82709839 131.47940529 -0.82709839 131.47940529 -0.81211853 129.68119812 C-0.80636307 128.39582657 -0.8006076 127.11045502 -0.79467773 125.78613281 C-0.78509539 124.41609911 -0.7750851 123.04606834 -0.76467896 121.67604065 C-0.73766237 117.95947269 -0.71663526 114.24289207 -0.69667697 110.5262804 C-0.67479738 106.64117443 -0.64741834 102.75610732 -0.62062073 98.87103271 C-0.57072052 91.51529079 -0.52577178 84.15952727 -0.48259836 76.80374312 C-0.43320315 68.42893522 -0.37829349 60.05416632 -0.32291877 51.67939615 C-0.20913974 34.45296544 -0.10301979 17.22649893 0 0 Z " fill="#16325B" transform="translate(602,2124)"/>
<path d="M0 0 C8.25 0 16.5 0 25 0 C25 57.42 25 114.84 25 174 C59.98 174 94.96 174 131 174 C131 143.97 131 113.94 131 83 C139.58 83 148.16 83 157 83 C157 122.6 157 162.2 157 203 C105.19 203 53.38 203 0 203 C0 136.01 0 69.02 0 0 Z " fill="#16325B" transform="translate(407,2041)"/>
<path d="M0 0 C4.1022461 2.92474953 6.10689926 6.5282974 7.6875 11.203125 C8.75876524 20.70748987 7.73856903 28.92731417 1.83984375 36.609375 C-5.82536734 44.95624733 -16.31057132 50.42871556 -27.67651367 51.40649414 C-30.24650586 51.50729301 -32.80310419 51.53101707 -35.375 51.515625 C-36.28805908 51.51361084 -37.20111816 51.51159668 -38.1418457 51.50952148 C-46.34509012 51.3895511 -55.85046111 50.93414445 -63.3125 47.203125 C-62.76394652 42.631846 -61.89505197 38.52876705 -60.3125 34.203125 C-54.0452478 35.03875863 -54.0452478 35.03875863 -51.03125 35.71484375 C-42.14632983 37.64813656 -33.35290027 37.38214283 -24.3125 37.203125 C-24.72242188 36.64625 -25.13234375 36.089375 -25.5546875 35.515625 C-30.64168842 28.31106867 -33.22377481 22.33624991 -31.91796875 13.44140625 C-30.27829837 7.37991509 -26.5486468 2.60662042 -21.3125 -0.796875 C-14.6242449 -4.61873506 -6.49250763 -3.71748421 0 0 Z M-17.3125 13.203125 C-18.74554064 16.06920629 -18.61894155 18.01613283 -18.3125 21.203125 C-16.22496173 25.07998179 -14.54213468 27.69254118 -10.3125 29.203125 C-6.64430982 24.46997638 -5.50674708 21.22478453 -5.3125 15.203125 C-5.74659733 12.7444464 -5.74659733 12.7444464 -7.3125 11.203125 C-11.57373914 9.47559562 -13.74324743 10.52618558 -17.3125 13.203125 Z " fill="#16325B" transform="translate(668.3125,2354.796875)"/>
<path d="M0 0 C4.09933235 3.69939749 7.13443153 6.86960645 7.8359375 12.51171875 C8.06455197 18.11277328 7.48598382 22.01087745 4.17578125 26.6171875 C0.4283616 30.55515391 -4.03246757 32.47269442 -9.4375 32.8125 C-13.98233987 32.54410394 -17.76513627 30.97516727 -21.4375 28.3125 C-26.07208049 22.48956553 -27.10871116 17.55909456 -26.4375 10.3125 C-24.61215409 5.03927847 -21.83030797 2.51558914 -17.4375 -0.6875 C-11.62364524 -2.62545159 -5.51641224 -2.70805692 0 0 Z " fill="#16325B" transform="translate(746.4375,2277.6875)"/>
<path d="M0 0 C3.96352514 3.27177783 5.70531558 6.99237081 6.33984375 12.11328125 C6.5493846 17.10035343 5.93698477 20.659089 3.0625 24.875 C-1.35084026 29.21772681 -4.50267838 31.04134128 -10.6875 31.1875 C-15.96849209 31.13696419 -18.94389067 30.56908863 -22.9375 26.875 C-27.40630731 21.92307838 -28.35192236 18.03962819 -28.28515625 11.515625 C-27.71484181 7.18379848 -25.79228133 4.11977878 -22.9375 0.875 C-16.24527699 -4.18497349 -7.13535799 -4.61521027 0 0 Z " fill="#16325B" transform="translate(127.9375,2261.125)"/>
<path d="M0 0 C4.82825024 4.23943924 6.27788497 8.29000372 6.875 14.5 C6.3800479 20.43942522 4.30289573 24.63391825 -0.0625 28.6875 C-5.27194668 32.11476755 -10.31920984 31.82659279 -16.4375 31.25 C-21.45541684 28.83064724 -24.93708655 25.2508269 -27.4375 20.25 C-27.96589495 14.03119791 -28.16243456 8.51628679 -24.4375 3.25 C-17.40094485 -3.59637798 -8.61662396 -4.38664492 0 0 Z " fill="#16325B" transform="translate(561.4375,2060.75)"/>
</svg>
